<?xml version="1.0" encoding="UTF-8" standalone="no"?>
<!-- Created with Inkscape (http://www.inkscape.org/) -->

<svg
   xmlns:dc="http://purl.org/dc/elements/1.1/"
   xmlns:cc="http://creativecommons.org/ns#"
   xmlns:rdf="http://www.w3.org/1999/02/22-rdf-syntax-ns#"
   xmlns:svg="http://www.w3.org/2000/svg"
   xmlns="http://www.w3.org/2000/svg"
   xmlns:sodipodi="http://sodipodi.sourceforge.net/DTD/sodipodi-0.dtd"
   xmlns:inkscape="http://www.inkscape.org/namespaces/inkscape"
   width="1000"
   height="1000"
   viewBox="0 0 264.58333 264.58334"
   version="1.1"
   id="svg8"
   inkscape:version="0.92.2 5c3e80d, 2017-08-06"
   sodipodi:docname="om.svg">
  <defs
     id="defs2" />
  <sodipodi:namedview
     id="base"
     pagecolor="#ffffff"
     bordercolor="#666666"
     borderopacity="1.0"
     inkscape:pageopacity="0.0"
     inkscape:pageshadow="2"
     inkscape:zoom="0.35"
     inkscape:cx="465.37825"
     inkscape:cy="242.89851"
     inkscape:document-units="mm"
     inkscape:current-layer="layer1"
     showgrid="false"
     units="px"
     inkscape:showpageshadow="false"
     inkscape:window-width="1435"
     inkscape:window-height="850"
     inkscape:window-x="0"
     inkscape:window-y="0"
     inkscape:window-maximized="0" />
  <metadata
     id="metadata5">
    <rdf:RDF>
      <cc:Work
         rdf:about="">
        <dc:format>image/svg+xml</dc:format>
        <dc:type
           rdf:resource="http://purl.org/dc/dcmitype/StillImage" />
        <dc:title></dc:title>
      </cc:Work>
    </rdf:RDF>
  </metadata>
  <g
     inkscape:label="Layer 1"
     inkscape:groupmode="layer"
     id="layer1"
     transform="translate(0,-32.41665)">
    <g
       id="g4554"
       transform="matrix(1.2013974,0,0,1.2013974,-26.643817,-33.171515)">
      <path
         inkscape:connector-curvature="0"
         id="path4535"
         d="M 132.29168,75.779526 A 88.928997,88.928997 0 0 0 43.362877,164.70833 88.928997,88.928997 0 0 0 132.29168,253.63711 88.928997,88.928997 0 0 0 221.22046,164.70833 88.928997,88.928997 0 0 0 132.29168,75.779526 Z M 81.315227,122.16654 h 16.86932 l 30.481533,28.70632 v 22.34381 L 99.959777,146.1382 v 61.1119 h -18.64455 z m 85.231683,0 h 16.72119 v 85.08356 h -18.64454 v -61.1119 l -28.7063,27.07847 v -22.34381 z"
         style="fill:#1a1a1a;fill-opacity:1;stroke:none;stroke-width:18.97393036;stroke-miterlimit:4;stroke-dasharray:none;stroke-opacity:1" />
      <path
         id="path4541"
         transform="matrix(0.26458333,0,0,0.26458333,0,32.41665)"
         d="m 487.14258,102.74414 c -213.35717,6.80163 -384.60741,182.26729 -384.60742,397.25781 0,214.99057 171.25024,390.45061 384.60742,397.25196 v -37.81446 c -192.89488,-6.75249 -346.8125,-164.87463 -346.8125,-359.4375 1e-5,-194.5628 153.91762,-352.6925 346.8125,-359.44531 z m 25.71484,0 v 37.8125 c 192.89243,6.75579 346.81442,164.88444 346.81446,359.44531 0,194.56091 -153.92203,352.68202 -346.81446,359.4375 v 37.81446 C 726.2126,890.45005 897.46875,714.99089 897.46875,500.00195 897.46871,285.01306 726.2126,109.54827 512.85742,102.74414 Z"
         style="color:#000000;font-style:normal;font-variant:normal;font-weight:normal;font-stretch:normal;font-size:medium;line-height:normal;font-family:sans-serif;font-variant-ligatures:normal;font-variant-position:normal;font-variant-caps:normal;font-variant-numeric:normal;font-variant-alternates:normal;font-feature-settings:normal;text-indent:0;text-align:start;text-decoration:none;text-decoration-line:none;text-decoration-style:solid;text-decoration-color:#000000;letter-spacing:normal;word-spacing:normal;text-transform:none;writing-mode:lr-tb;direction:ltr;text-orientation:mixed;dominant-baseline:auto;baseline-shift:baseline;text-anchor:start;white-space:normal;shape-padding:0;clip-rule:nonzero;display:inline;overflow:visible;visibility:visible;opacity:1;isolation:auto;mix-blend-mode:normal;color-interpolation:sRGB;color-interpolation-filters:linearRGB;solid-color:#000000;solid-opacity:1;vector-effect:none;fill:#1a1a1a;fill-opacity:1;fill-rule:nonzero;stroke:none;stroke-width:37.79527664;stroke-linecap:butt;stroke-linejoin:miter;stroke-miterlimit:4;stroke-dasharray:none;stroke-dashoffset:0;stroke-opacity:1;color-rendering:auto;image-rendering:auto;shape-rendering:auto;text-rendering:auto;enable-background:accumulate"
         inkscape:connector-curvature="0" />
    </g>
  </g>
</svg>
